<?xml version="1.0" encoding="UTF-8"?>
<!DOCTYPE score-partwise PUBLIC "-//Recordare//DTD MusicXML 2.0 Partwise//EN" "http://www.musicxml.org/dtds/partwise.dtd">

<score-partwise version="2.0">
    <movement-title>ThanYouSavSoul</movement-title>
    <identification>
        <encoding>
            <software>Logic Pro</software>
            <encoding-date>2026-03-26</encoding-date>
            <supports attribute="new-system" element="print" type="yes" value="yes"/>
            <supports attribute="new-page" element="print" type="yes" value="yes"/>
        </encoding>
    </identification>
    <defaults>
        <scaling>
            <millimeters>7.540625</millimeters>
            <tenths>40</tenths>
        </scaling>
        <page-layout>
            <page-height>1575</page-height>
            <page-width>1113</page-width>
            <page-margins type="both">
                <left-margin>58</left-margin>
                <right-margin>58</right-margin>
                <top-margin>66</top-margin>
                <bottom-margin>66</bottom-margin>
            </page-margins>
        </page-layout>
        <system-layout>
            <system-margins>
                <left-margin>26</left-margin>
                <right-margin>0</right-margin>
            </system-margins>
            <system-distance>87</system-distance>
            <top-system-distance>96</top-system-distance>
        </system-layout>
        <staff-layout>
            <staff-distance>0</staff-distance>
        </staff-layout>
    </defaults>
    <part-list>
        <score-part id="P1">
            <part-name>St. Paul</part-name>
            <score-instrument id="P1-I1">
                <instrument-name>Choir Aahs</instrument-name>
            </score-instrument>
            <midi-instrument id="P1-I1">
                <midi-channel>1</midi-channel>
                <midi-program>53</midi-program>
            </midi-instrument>
        </score-part>
    </part-list>
    <part id="P1">
        <measure number="1" width="137">
            <print page-number="1">
                <system-layout>
                    <system-margins>
                        <left-margin>26</left-margin>
                        <right-margin>0</right-margin>
                    </system-margins>
                    <top-system-distance>96</top-system-distance>
                </system-layout>
                <measure-numbering>none</measure-numbering>
            </print>
            <attributes>
                <divisions>1</divisions>
                <key>
                    <fifths>-1</fifths>
                    <mode>major</mode>
                </key>
                <time>
                    <beats>3</beats>
                    <beat-type>4</beat-type>
                </time>
                <clef>
                    <sign>G</sign>
                    <line>2</line>
                </clef>
            </attributes>
            <sound tempo="113"/>
            <note>
                <rest/>
                <duration>3</duration>
                <voice>1</voice>
                <type>whole</type>
                <staff>1</staff>
            </note>
            <sound tempo="117"/>
        </measure>
        <measure number="2" width="101">
            <print new-system="no"/>
            <note>
                <pitch>
                    <step>F</step>
                    <octave>4</octave>
                </pitch>
                <duration>1</duration>
                <voice>1</voice>
                <type>quarter</type>
                <stem>up</stem>
                <staff>1</staff>
            </note>
            <note>
                <pitch>
                    <step>E</step>
                    <octave>4</octave>
                </pitch>
                <duration>1</duration>
                <voice>1</voice>
                <type>quarter</type>
                <stem>up</stem>
                <staff>1</staff>
            </note>
            <note>
                <pitch>
                    <step>D</step>
                    <octave>4</octave>
                </pitch>
                <duration>1</duration>
                <voice>1</voice>
                <type>quarter</type>
                <stem>up</stem>
                <staff>1</staff>
            </note>
        </measure>
        <measure number="3" width="79">
            <print new-system="no"/>
            <note>
                <pitch>
                    <step>F</step>
                    <octave>4</octave>
                </pitch>
                <duration>2</duration>
                <voice>1</voice>
                <type>half</type>
                <stem>up</stem>
                <staff>1</staff>
            </note>
            <note>
                <pitch>
                    <step>D</step>
                    <octave>4</octave>
                </pitch>
                <duration>1</duration>
                <voice>1</voice>
                <type>quarter</type>
                <stem>up</stem>
                <staff>1</staff>
            </note>
        </measure>
        <measure number="4" width="77">
            <print new-system="no"/>
            <sound tempo="119"/>
            <note>
                <pitch>
                    <step>E</step>
                    <octave>4</octave>
                </pitch>
                <duration>2</duration>
                <voice>1</voice>
                <type>half</type>
                <stem>up</stem>
                <staff>1</staff>
            </note>
            <note>
                <pitch>
                    <step>D</step>
                    <octave>4</octave>
                </pitch>
                <duration>1</duration>
                <voice>1</voice>
                <type>quarter</type>
                <stem>up</stem>
                <staff>1</staff>
            </note>
        </measure>
        <measure number="5" width="94">
            <print new-system="no"/>
            <note>
                <pitch>
                    <step>C</step>
                    <octave>4</octave>
                </pitch>
                <duration>2</duration>
                <voice>1</voice>
                <type>half</type>
                <stem>up</stem>
                <staff>1</staff>
            </note>
            <note>
                <pitch>
                    <step>C</step>
                    <octave>4</octave>
                </pitch>
                <duration>1</duration>
                <voice>1</voice>
                <type>quarter</type>
                <stem>up</stem>
                <staff>1</staff>
            </note>
        </measure>
        <measure number="6" width="79">
            <print new-system="no"/>
            <note>
                <pitch>
                    <step>G</step>
                    <octave>4</octave>
                </pitch>
                <duration>2</duration>
                <voice>1</voice>
                <type>half</type>
                <stem>up</stem>
                <staff>1</staff>
            </note>
            <note>
                <pitch>
                    <step>E</step>
                    <octave>4</octave>
                </pitch>
                <duration>1</duration>
                <voice>1</voice>
                <type>quarter</type>
                <stem>up</stem>
                <staff>1</staff>
            </note>
        </measure>
        <measure number="7" width="86">
            <print new-system="no"/>
            <note>
                <pitch>
                    <step>D</step>
                    <octave>4</octave>
                </pitch>
                <duration>2</duration>
                <voice>1</voice>
                <type>half</type>
                <stem>up</stem>
                <staff>1</staff>
            </note>
            <note>
                <pitch>
                    <step>C</step>
                    <octave>4</octave>
                </pitch>
                <duration>1</duration>
                <voice>1</voice>
                <type>quarter</type>
                <stem>up</stem>
                <staff>1</staff>
            </note>
        </measure>
        <measure number="8" width="64">
            <print new-system="no"/>
            <sound tempo="117"/>
            <note>
                <pitch>
                    <step>F</step>
                    <octave>4</octave>
                </pitch>
                <duration>3</duration>
                <voice>1</voice>
                <type>half</type>
                <dot/>
                <stem>up</stem>
                <staff>1</staff>
            </note>
        </measure>
        <measure number="9" width="89">
            <print new-system="no"/>
            <sound tempo="120"/>
            <note>
                <rest/>
                <duration>1</duration>
                <voice>1</voice>
                <type>quarter</type>
                <staff>1</staff>
            </note>
            <note>
                <rest/>
                <duration>1</duration>
                <voice>1</voice>
                <type>quarter</type>
                <staff>1</staff>
            </note>
            <note>
                <pitch>
                    <step>A</step>
                    <octave>4</octave>
                </pitch>
                <duration>1</duration>
                <voice>1</voice>
                <type>quarter</type>
                <stem>up</stem>
                <staff>1</staff>
            </note>
        </measure>
        <measure number="10" width="79">
            <print new-system="no"/>
            <note>
                <pitch>
                    <step>G</step>
                    <octave>4</octave>
                </pitch>
                <duration>2</duration>
                <voice>1</voice>
                <type>half</type>
                <stem>up</stem>
                <staff>1</staff>
            </note>
            <note>
                <pitch>
                    <step>A</step>
                    <octave>4</octave>
                </pitch>
                <duration>1</duration>
                <voice>1</voice>
                <type>quarter</type>
                <stem>up</stem>
                <staff>1</staff>
            </note>
        </measure>
        <measure number="11" width="46">
            <print new-system="no"/>
            <sound tempo="118"/>
            <note>
                <pitch>
                    <step>G</step>
                    <octave>4</octave>
                </pitch>
                <duration>2</duration>
                <voice>1</voice>
                <type>half</type>
                <stem>up</stem>
                <staff>1</staff>
            </note>
            <note>
                <pitch>
                    <step>F</step>
                    <octave>4</octave>
                </pitch>
                <duration>1</duration>
                <voice>1</voice>
                <type>quarter</type>
                <stem>up</stem>
                <staff>1</staff>
            </note>
        </measure>
        <measure number="12" width="130">
            <print new-system="yes">
                <system-layout>
                    <system-margins>
                        <left-margin>26</left-margin>
                        <right-margin>0</right-margin>
                    </system-margins>
                    <system-distance>87</system-distance>
                </system-layout>
            </print>
            <sound tempo="117"/>
            <note>
                <pitch>
                    <step>E</step>
                    <octave>4</octave>
                </pitch>
                <duration>2</duration>
                <voice>1</voice>
                <type>half</type>
                <stem>up</stem>
                <staff>1</staff>
            </note>
            <note>
                <pitch>
                    <step>F</step>
                    <octave>4</octave>
                </pitch>
                <duration>1</duration>
                <voice>1</voice>
                <type>quarter</type>
                <stem>up</stem>
                <staff>1</staff>
            </note>
        </measure>
        <measure number="13" width="73">
            <print new-system="no"/>
            <sound tempo="114"/>
            <note>
                <pitch>
                    <step>G</step>
                    <octave>4</octave>
                </pitch>
                <duration>2</duration>
                <voice>1</voice>
                <type>half</type>
                <stem>up</stem>
                <staff>1</staff>
            </note>
            <note>
                <pitch>
                    <step>F</step>
                    <octave>4</octave>
                </pitch>
                <duration>1</duration>
                <voice>1</voice>
                <type>quarter</type>
                <stem>up</stem>
                <staff>1</staff>
            </note>
        </measure>
        <measure number="14" width="74">
            <print new-system="no"/>
            <sound tempo="118"/>
            <note>
                <pitch>
                    <step>E</step>
                    <octave>4</octave>
                </pitch>
                <duration>2</duration>
                <voice>1</voice>
                <type>half</type>
                <stem>up</stem>
                <staff>1</staff>
            </note>
            <note>
                <pitch>
                    <step>E</step>
                    <octave>4</octave>
                </pitch>
                <duration>1</duration>
                <voice>1</voice>
                <type>quarter</type>
                <stem>up</stem>
                <staff>1</staff>
            </note>
        </measure>
        <measure number="15" width="73">
            <print new-system="no"/>
            <note>
                <pitch>
                    <step>F</step>
                    <octave>4</octave>
                </pitch>
                <duration>2</duration>
                <voice>1</voice>
                <type>half</type>
                <stem>up</stem>
                <staff>1</staff>
            </note>
            <note>
                <pitch>
                    <step>D</step>
                    <octave>4</octave>
                </pitch>
                <duration>1</duration>
                <voice>1</voice>
                <type>quarter</type>
                <stem>up</stem>
                <staff>1</staff>
            </note>
            <sound tempo="113"/>
        </measure>
        <measure number="16" width="59">
            <print new-system="no"/>
            <note>
                <pitch>
                    <step>G</step>
                    <octave>4</octave>
                </pitch>
                <duration>3</duration>
                <voice>1</voice>
                <type>half</type>
                <dot/>
                <stem>up</stem>
                <staff>1</staff>
            </note>
        </measure>
        <measure number="17" width="68">
            <print new-system="no"/>
            <sound tempo="111"/>
            <note>
                <pitch>
                    <step>A</step>
                    <alter>-1</alter>
                    <octave>4</octave>
                </pitch>
                <duration>3</duration>
                <voice>1</voice>
                <type>half</type>
                <dot/>
                <accidental>flat</accidental>
                <stem>up</stem>
                <staff>1</staff>
            </note>
        </measure>
        <measure number="18" width="73">
            <print new-system="no"/>
            <sound tempo="113"/>
            <note>
                <pitch>
                    <step>A</step>
                    <octave>4</octave>
                </pitch>
                <duration>2</duration>
                <voice>1</voice>
                <type>half</type>
                <stem>up</stem>
                <staff>1</staff>
            </note>
            <note>
                <pitch>
                    <step>F</step>
                    <octave>4</octave>
                </pitch>
                <duration>1</duration>
                <voice>1</voice>
                <type>quarter</type>
                <stem>up</stem>
                <staff>1</staff>
            </note>
        </measure>
        <measure number="19" width="89">
            <print new-system="no"/>
            <sound tempo="116"/>
            <note>
                <pitch>
                    <step>C</step>
                    <octave>4</octave>
                </pitch>
                <duration>2</duration>
                <voice>1</voice>
                <type>half</type>
                <stem>up</stem>
                <staff>1</staff>
            </note>
            <note>
                <pitch>
                    <step>D</step>
                    <alter>-1</alter>
                    <octave>4</octave>
                </pitch>
                <duration>1</duration>
                <voice>1</voice>
                <type>quarter</type>
                <accidental>flat</accidental>
                <stem>up</stem>
                <staff>1</staff>
            </note>
        </measure>
        <measure number="20" width="97">
            <print new-system="no"/>
            <note>
                <pitch>
                    <step>D</step>
                    <octave>4</octave>
                </pitch>
                <duration>1</duration>
                <voice>1</voice>
                <type>quarter</type>
                <stem>up</stem>
                <staff>1</staff>
            </note>
            <note>
                <pitch>
                    <step>F</step>
                    <octave>4</octave>
                </pitch>
                <duration>1</duration>
                <voice>1</voice>
                <type>quarter</type>
                <stem>up</stem>
                <staff>1</staff>
            </note>
            <note>
                <pitch>
                    <step>B</step>
                    <alter>-1</alter>
                    <octave>4</octave>
                </pitch>
                <duration>1</duration>
                <voice>1</voice>
                <type>quarter</type>
                <stem>down</stem>
                <staff>1</staff>
            </note>
        </measure>
        <measure number="21" width="71">
            <print new-system="no"/>
            <sound tempo="115"/>
            <note>
                <pitch>
                    <step>A</step>
                    <octave>4</octave>
                </pitch>
                <duration>2</duration>
                <voice>1</voice>
                <type>half</type>
                <stem>up</stem>
                <staff>1</staff>
            </note>
            <note>
                <rest/>
                <duration>1</duration>
                <voice>1</voice>
                <type>quarter</type>
                <staff>1</staff>
            </note>
        </measure>
        <measure number="22" width="74">
            <print new-system="no"/>
            <note>
                <pitch>
                    <step>A</step>
                    <octave>4</octave>
                </pitch>
                <duration>2</duration>
                <voice>1</voice>
                <type>half</type>
                <stem>up</stem>
                <staff>1</staff>
            </note>
            <note>
                <pitch>
                    <step>F</step>
                    <octave>4</octave>
                </pitch>
                <duration>1</duration>
                <voice>1</voice>
                <type>quarter</type>
                <stem>up</stem>
                <staff>1</staff>
            </note>
        </measure>
        <measure number="23" width="49">
            <print new-system="no"/>
            <sound tempo="116"/>
            <note>
                <pitch>
                    <step>C</step>
                    <octave>4</octave>
                </pitch>
                <duration>2</duration>
                <voice>1</voice>
                <type>half</type>
                <stem>up</stem>
                <staff>1</staff>
            </note>
            <note>
                <pitch>
                    <step>F</step>
                    <octave>4</octave>
                </pitch>
                <duration>1</duration>
                <voice>1</voice>
                <type>quarter</type>
                <stem>up</stem>
                <staff>1</staff>
            </note>
        </measure>
        <measure number="24" width="154">
            <print new-system="yes">
                <system-layout>
                    <system-margins>
                        <left-margin>26</left-margin>
                        <right-margin>0</right-margin>
                    </system-margins>
                    <system-distance>87</system-distance>
                </system-layout>
            </print>
            <note>
                <pitch>
                    <step>F</step>
                    <octave>4</octave>
                </pitch>
                <duration>1</duration>
                <voice>1</voice>
                <type>quarter</type>
                <stem>up</stem>
                <staff>1</staff>
            </note>
            <note>
                <pitch>
                    <step>G</step>
                    <octave>4</octave>
                </pitch>
                <duration>1</duration>
                <voice>1</voice>
                <type>quarter</type>
                <stem>up</stem>
                <staff>1</staff>
            </note>
            <note>
                <pitch>
                    <step>A</step>
                    <octave>4</octave>
                </pitch>
                <duration>1</duration>
                <voice>1</voice>
                <type>quarter</type>
                <stem>up</stem>
                <staff>1</staff>
            </note>
        </measure>
        <measure number="25" width="76">
            <print new-system="no"/>
            <sound tempo="113"/>
            <note>
                <pitch>
                    <step>G</step>
                    <octave>4</octave>
                </pitch>
                <duration>2</duration>
                <voice>1</voice>
                <type>half</type>
                <stem>up</stem>
                <staff>1</staff>
            </note>
            <note>
                <rest/>
                <duration>1</duration>
                <voice>1</voice>
                <type>quarter</type>
                <staff>1</staff>
            </note>
        </measure>
        <measure number="26" width="76">
            <print new-system="no"/>
            <sound tempo="118"/>
            <note>
                <pitch>
                    <step>A</step>
                    <octave>4</octave>
                </pitch>
                <duration>2</duration>
                <voice>1</voice>
                <type>half</type>
                <stem>up</stem>
                <staff>1</staff>
            </note>
            <note>
                <pitch>
                    <step>F</step>
                    <octave>4</octave>
                </pitch>
                <duration>1</duration>
                <voice>1</voice>
                <type>quarter</type>
                <stem>up</stem>
                <staff>1</staff>
            </note>
        </measure>
        <measure number="27" width="94">
            <print new-system="no"/>
            <sound tempo="116"/>
            <note>
                <pitch>
                    <step>C</step>
                    <octave>4</octave>
                </pitch>
                <duration>2</duration>
                <voice>1</voice>
                <type>half</type>
                <stem>up</stem>
                <staff>1</staff>
            </note>
            <note>
                <pitch>
                    <step>D</step>
                    <alter>-1</alter>
                    <octave>4</octave>
                </pitch>
                <duration>1</duration>
                <voice>1</voice>
                <type>quarter</type>
                <accidental>flat</accidental>
                <stem>up</stem>
                <staff>1</staff>
            </note>
        </measure>
        <measure number="28" width="98">
            <print new-system="no"/>
            <sound tempo="113"/>
            <note>
                <pitch>
                    <step>D</step>
                    <octave>4</octave>
                </pitch>
                <duration>1</duration>
                <voice>1</voice>
                <type>quarter</type>
                <stem>up</stem>
                <staff>1</staff>
            </note>
            <note>
                <pitch>
                    <step>F</step>
                    <octave>4</octave>
                </pitch>
                <duration>1</duration>
                <voice>1</voice>
                <type>quarter</type>
                <stem>up</stem>
                <staff>1</staff>
            </note>
            <note>
                <pitch>
                    <step>B</step>
                    <alter>-1</alter>
                    <octave>4</octave>
                </pitch>
                <duration>1</duration>
                <voice>1</voice>
                <type>quarter</type>
                <stem>down</stem>
                <staff>1</staff>
            </note>
        </measure>
        <measure number="29" width="62">
            <print new-system="no"/>
            <sound tempo="111"/>
            <note>
                <pitch>
                    <step>A</step>
                    <octave>4</octave>
                </pitch>
                <duration>3</duration>
                <voice>1</voice>
                <type>half</type>
                <dot/>
                <stem>up</stem>
                <staff>1</staff>
            </note>
            <sound tempo="114"/>
        </measure>
        <measure number="30" width="98">
            <print new-system="no"/>
            <note>
                <pitch>
                    <step>C</step>
                    <octave>5</octave>
                </pitch>
                <duration>1</duration>
                <voice>1</voice>
                <type>quarter</type>
                <stem>down</stem>
                <staff>1</staff>
            </note>
            <note>
                <pitch>
                    <step>A</step>
                    <octave>4</octave>
                </pitch>
                <duration>1</duration>
                <voice>1</voice>
                <type>quarter</type>
                <stem>up</stem>
                <staff>1</staff>
            </note>
            <note>
                <pitch>
                    <step>F</step>
                    <octave>4</octave>
                </pitch>
                <duration>1</duration>
                <voice>1</voice>
                <type>quarter</type>
                <stem>up</stem>
                <staff>1</staff>
            </note>
        </measure>
        <measure number="31" width="100">
            <print new-system="no"/>
            <sound tempo="111"/>
            <note>
                <pitch>
                    <step>G</step>
                    <octave>4</octave>
                </pitch>
                <duration>1</duration>
                <voice>1</voice>
                <type>quarter</type>
                <stem>up</stem>
                <staff>1</staff>
            </note>
            <note>
                <pitch>
                    <step>A</step>
                    <octave>4</octave>
                </pitch>
                <duration>1</duration>
                <voice>1</voice>
                <type>quarter</type>
                <stem>up</stem>
                <staff>1</staff>
            </note>
            <note>
                <pitch>
                    <step>B</step>
                    <alter>-1</alter>
                    <octave>4</octave>
                </pitch>
                <duration>1</duration>
                <voice>1</voice>
                <type>quarter</type>
                <stem>down</stem>
                <staff>1</staff>
            </note>
        </measure>
        <measure number="32" width="76">
            <print new-system="no"/>
            <sound tempo="109"/>
            <note>
                <pitch>
                    <step>A</step>
                    <octave>4</octave>
                </pitch>
                <duration>2</duration>
                <voice>1</voice>
                <type>half</type>
                <stem>up</stem>
                <staff>1</staff>
            </note>
            <note>
                <pitch>
                    <step>G</step>
                    <octave>4</octave>
                </pitch>
                <duration>1</duration>
                <voice>1</voice>
                <type>quarter</type>
                <stem>up</stem>
                <staff>1</staff>
            </note>
        </measure>
        <measure number="33" width="76">
            <print new-system="no"/>
            <sound tempo="111"/>
            <note>
                <pitch>
                    <step>F</step>
                    <octave>4</octave>
                </pitch>
                <duration>2</duration>
                <voice>1</voice>
                <type>half</type>
                <stem>up</stem>
                <staff>1</staff>
            </note>
            <note>
                <rest/>
                <duration>1</duration>
                <voice>1</voice>
                <type>quarter</type>
                <staff>1</staff>
            </note>
        </measure>
        <measure number="34" width="22">
            <print new-system="no"/>
            <sound tempo="113"/>
            <note>
                <rest/>
                <duration>3</duration>
                <voice>1</voice>
                <type>whole</type>
                <staff>1</staff>
            </note>
        </measure>
        <measure number="35" width="107">
            <print new-system="yes">
                <system-layout>
                    <system-margins>
                        <left-margin>26</left-margin>
                        <right-margin>0</right-margin>
                    </system-margins>
                    <system-distance>87</system-distance>
                </system-layout>
            </print>
            <sound tempo="116"/>
            <note>
                <rest/>
                <duration>3</duration>
                <voice>1</voice>
                <type>whole</type>
                <staff>1</staff>
            </note>
        </measure>
        <measure number="36" width="97">
            <print new-system="no"/>
            <note>
                <pitch>
                    <step>F</step>
                    <octave>4</octave>
                </pitch>
                <duration>1</duration>
                <voice>1</voice>
                <type>quarter</type>
                <stem>up</stem>
                <staff>1</staff>
            </note>
            <note>
                <pitch>
                    <step>E</step>
                    <octave>4</octave>
                </pitch>
                <duration>1</duration>
                <voice>1</voice>
                <type>quarter</type>
                <stem>up</stem>
                <staff>1</staff>
            </note>
            <note>
                <pitch>
                    <step>D</step>
                    <octave>4</octave>
                </pitch>
                <duration>1</duration>
                <voice>1</voice>
                <type>quarter</type>
                <stem>up</stem>
                <staff>1</staff>
            </note>
        </measure>
        <measure number="37" width="74">
            <print new-system="no"/>
            <sound tempo="119"/>
            <note>
                <pitch>
                    <step>F</step>
                    <octave>4</octave>
                </pitch>
                <duration>2</duration>
                <voice>1</voice>
                <type>half</type>
                <stem>up</stem>
                <staff>1</staff>
            </note>
            <note>
                <pitch>
                    <step>D</step>
                    <octave>4</octave>
                </pitch>
                <duration>1</duration>
                <voice>1</voice>
                <type>quarter</type>
                <stem>up</stem>
                <staff>1</staff>
            </note>
        </measure>
        <measure number="38" width="74">
            <print new-system="no"/>
            <sound tempo="116"/>
            <note>
                <pitch>
                    <step>E</step>
                    <octave>4</octave>
                </pitch>
                <duration>2</duration>
                <voice>1</voice>
                <type>half</type>
                <stem>up</stem>
                <staff>1</staff>
            </note>
            <note>
                <pitch>
                    <step>D</step>
                    <octave>4</octave>
                </pitch>
                <duration>1</duration>
                <voice>1</voice>
                <type>quarter</type>
                <stem>up</stem>
                <staff>1</staff>
            </note>
        </measure>
        <measure number="39" width="88">
            <print new-system="no"/>
            <note>
                <pitch>
                    <step>C</step>
                    <octave>4</octave>
                </pitch>
                <duration>2</duration>
                <voice>1</voice>
                <type>half</type>
                <stem>up</stem>
                <staff>1</staff>
            </note>
            <note>
                <pitch>
                    <step>C</step>
                    <octave>4</octave>
                </pitch>
                <duration>1</duration>
                <voice>1</voice>
                <type>quarter</type>
                <stem>up</stem>
                <staff>1</staff>
            </note>
        </measure>
        <measure number="40" width="74">
            <print new-system="no"/>
            <sound tempo="118"/>
            <note>
                <pitch>
                    <step>G</step>
                    <octave>4</octave>
                </pitch>
                <duration>2</duration>
                <voice>1</voice>
                <type>half</type>
                <stem>up</stem>
                <staff>1</staff>
            </note>
            <note>
                <pitch>
                    <step>E</step>
                    <octave>4</octave>
                </pitch>
                <duration>1</duration>
                <voice>1</voice>
                <type>quarter</type>
                <stem>up</stem>
                <staff>1</staff>
            </note>
        </measure>
        <measure number="41" width="82">
            <print new-system="no"/>
            <sound tempo="115"/>
            <note>
                <pitch>
                    <step>D</step>
                    <octave>4</octave>
                </pitch>
                <duration>2</duration>
                <voice>1</voice>
                <type>half</type>
                <stem>up</stem>
                <staff>1</staff>
            </note>
            <note>
                <pitch>
                    <step>C</step>
                    <octave>4</octave>
                </pitch>
                <duration>1</duration>
                <voice>1</voice>
                <type>quarter</type>
                <stem>up</stem>
                <staff>1</staff>
            </note>
        </measure>
        <measure number="42" width="59">
            <print new-system="no"/>
            <sound tempo="117"/>
            <note>
                <pitch>
                    <step>F</step>
                    <octave>4</octave>
                </pitch>
                <duration>3</duration>
                <voice>1</voice>
                <type>half</type>
                <dot/>
                <stem>up</stem>
                <staff>1</staff>
            </note>
        </measure>
        <measure number="43" width="85">
            <print new-system="no"/>
            <sound tempo="118"/>
            <note>
                <rest/>
                <duration>1</duration>
                <voice>1</voice>
                <type>quarter</type>
                <staff>1</staff>
            </note>
            <note>
                <rest/>
                <duration>1</duration>
                <voice>1</voice>
                <type>quarter</type>
                <staff>1</staff>
            </note>
            <note>
                <pitch>
                    <step>A</step>
                    <octave>4</octave>
                </pitch>
                <duration>1</duration>
                <voice>1</voice>
                <type>quarter</type>
                <stem>up</stem>
                <staff>1</staff>
            </note>
        </measure>
        <measure number="44" width="74">
            <print new-system="no"/>
            <sound tempo="117"/>
            <note>
                <pitch>
                    <step>G</step>
                    <octave>4</octave>
                </pitch>
                <duration>2</duration>
                <voice>1</voice>
                <type>half</type>
                <stem>up</stem>
                <staff>1</staff>
            </note>
            <note>
                <pitch>
                    <step>A</step>
                    <octave>4</octave>
                </pitch>
                <duration>1</duration>
                <voice>1</voice>
                <type>quarter</type>
                <stem>up</stem>
                <staff>1</staff>
            </note>
        </measure>
        <measure number="45" width="74">
            <print new-system="no"/>
            <note>
                <pitch>
                    <step>G</step>
                    <octave>4</octave>
                </pitch>
                <duration>2</duration>
                <voice>1</voice>
                <type>half</type>
                <stem>up</stem>
                <staff>1</staff>
            </note>
            <note>
                <pitch>
                    <step>F</step>
                    <octave>4</octave>
                </pitch>
                <duration>1</duration>
                <voice>1</voice>
                <type>quarter</type>
                <stem>up</stem>
                <staff>1</staff>
            </note>
        </measure>
        <measure number="46" width="42">
            <print new-system="no"/>
            <sound tempo="114"/>
            <note>
                <pitch>
                    <step>E</step>
                    <octave>4</octave>
                </pitch>
                <duration>2</duration>
                <voice>1</voice>
                <type>half</type>
                <stem>up</stem>
                <staff>1</staff>
            </note>
            <note>
                <pitch>
                    <step>F</step>
                    <octave>4</octave>
                </pitch>
                <duration>1</duration>
                <voice>1</voice>
                <type>quarter</type>
                <stem>up</stem>
                <staff>1</staff>
            </note>
        </measure>
        <measure number="47" width="136">
            <print new-system="yes">
                <system-layout>
                    <system-margins>
                        <left-margin>26</left-margin>
                        <right-margin>0</right-margin>
                    </system-margins>
                    <system-distance>87</system-distance>
                </system-layout>
            </print>
            <sound tempo="118"/>
            <note>
                <pitch>
                    <step>G</step>
                    <octave>4</octave>
                </pitch>
                <duration>2</duration>
                <voice>1</voice>
                <type>half</type>
                <stem>up</stem>
                <staff>1</staff>
            </note>
            <note>
                <pitch>
                    <step>F</step>
                    <octave>4</octave>
                </pitch>
                <duration>1</duration>
                <voice>1</voice>
                <type>quarter</type>
                <stem>up</stem>
                <staff>1</staff>
            </note>
        </measure>
        <measure number="48" width="80">
            <print new-system="no"/>
            <note>
                <pitch>
                    <step>E</step>
                    <octave>4</octave>
                </pitch>
                <duration>2</duration>
                <voice>1</voice>
                <type>half</type>
                <stem>up</stem>
                <staff>1</staff>
            </note>
            <note>
                <pitch>
                    <step>E</step>
                    <octave>4</octave>
                </pitch>
                <duration>1</duration>
                <voice>1</voice>
                <type>quarter</type>
                <stem>up</stem>
                <staff>1</staff>
            </note>
        </measure>
        <measure number="49" width="80">
            <print new-system="no"/>
            <sound tempo="115"/>
            <note>
                <pitch>
                    <step>F</step>
                    <octave>4</octave>
                </pitch>
                <duration>2</duration>
                <voice>1</voice>
                <type>half</type>
                <stem>up</stem>
                <staff>1</staff>
            </note>
            <note>
                <pitch>
                    <step>D</step>
                    <octave>4</octave>
                </pitch>
                <duration>1</duration>
                <voice>1</voice>
                <type>quarter</type>
                <stem>up</stem>
                <staff>1</staff>
            </note>
            <sound tempo="112"/>
        </measure>
        <measure number="50" width="67">
            <print new-system="no"/>
            <note>
                <pitch>
                    <step>G</step>
                    <octave>4</octave>
                </pitch>
                <duration>3</duration>
                <voice>1</voice>
                <type>half</type>
                <dot/>
                <stem>up</stem>
                <staff>1</staff>
            </note>
        </measure>
        <measure number="51" width="73">
            <print new-system="no"/>
            <sound tempo="110"/>
            <note>
                <pitch>
                    <step>A</step>
                    <alter>-1</alter>
                    <octave>4</octave>
                </pitch>
                <duration>3</duration>
                <voice>1</voice>
                <type>half</type>
                <dot/>
                <accidental>flat</accidental>
                <stem>up</stem>
                <staff>1</staff>
            </note>
        </measure>
        <measure number="52" width="82">
            <print new-system="no"/>
            <sound tempo="114"/>
            <note>
                <pitch>
                    <step>A</step>
                    <octave>4</octave>
                </pitch>
                <duration>2</duration>
                <voice>1</voice>
                <type>half</type>
                <stem>up</stem>
                <staff>1</staff>
            </note>
            <note>
                <pitch>
                    <step>F</step>
                    <octave>4</octave>
                </pitch>
                <duration>1</duration>
                <voice>1</voice>
                <type>quarter</type>
                <stem>up</stem>
                <staff>1</staff>
            </note>
        </measure>
        <measure number="53" width="95">
            <print new-system="no"/>
            <sound tempo="114"/>
            <note>
                <pitch>
                    <step>C</step>
                    <octave>4</octave>
                </pitch>
                <duration>2</duration>
                <voice>1</voice>
                <type>half</type>
                <stem>up</stem>
                <staff>1</staff>
            </note>
            <sound tempo="112"/>
            <note>
                <pitch>
                    <step>D</step>
                    <alter>-1</alter>
                    <octave>4</octave>
                </pitch>
                <duration>1</duration>
                <voice>1</voice>
                <type>quarter</type>
                <accidental>flat</accidental>
                <stem>up</stem>
                <staff>1</staff>
            </note>
        </measure>
        <measure number="54" width="104">
            <print new-system="no"/>
            <note>
                <pitch>
                    <step>D</step>
                    <octave>4</octave>
                </pitch>
                <duration>1</duration>
                <voice>1</voice>
                <type>quarter</type>
                <stem>up</stem>
                <staff>1</staff>
            </note>
            <note>
                <pitch>
                    <step>F</step>
                    <octave>4</octave>
                </pitch>
                <duration>1</duration>
                <voice>1</voice>
                <type>quarter</type>
                <stem>up</stem>
                <staff>1</staff>
            </note>
            <note>
                <pitch>
                    <step>B</step>
                    <alter>-1</alter>
                    <octave>4</octave>
                </pitch>
                <duration>1</duration>
                <voice>1</voice>
                <type>quarter</type>
                <stem>down</stem>
                <staff>1</staff>
            </note>
        </measure>
        <measure number="55" width="79">
            <print new-system="no"/>
            <note>
                <pitch>
                    <step>A</step>
                    <octave>4</octave>
                </pitch>
                <duration>2</duration>
                <voice>1</voice>
                <type>half</type>
                <stem>up</stem>
                <staff>1</staff>
            </note>
            <note>
                <rest/>
                <duration>1</duration>
                <voice>1</voice>
                <type>quarter</type>
                <staff>1</staff>
            </note>
        </measure>
        <measure number="56" width="80">
            <print new-system="no"/>
            <note>
                <pitch>
                    <step>A</step>
                    <octave>4</octave>
                </pitch>
                <duration>2</duration>
                <voice>1</voice>
                <type>half</type>
                <stem>up</stem>
                <staff>1</staff>
            </note>
            <note>
                <pitch>
                    <step>F</step>
                    <octave>4</octave>
                </pitch>
                <duration>1</duration>
                <voice>1</voice>
                <type>quarter</type>
                <stem>up</stem>
                <staff>1</staff>
            </note>
        </measure>
        <measure number="57" width="55">
            <print new-system="no"/>
            <note>
                <pitch>
                    <step>C</step>
                    <octave>4</octave>
                </pitch>
                <duration>2</duration>
                <voice>1</voice>
                <type>half</type>
                <stem>up</stem>
                <staff>1</staff>
            </note>
            <note>
                <pitch>
                    <step>F</step>
                    <octave>4</octave>
                </pitch>
                <duration>1</duration>
                <voice>1</voice>
                <type>quarter</type>
                <stem>up</stem>
                <staff>1</staff>
            </note>
        </measure>
        <measure number="58" width="154">
            <print new-system="yes">
                <system-layout>
                    <system-margins>
                        <left-margin>26</left-margin>
                        <right-margin>0</right-margin>
                    </system-margins>
                    <system-distance>87</system-distance>
                </system-layout>
            </print>
            <note>
                <pitch>
                    <step>F</step>
                    <octave>4</octave>
                </pitch>
                <duration>1</duration>
                <voice>1</voice>
                <type>quarter</type>
                <stem>up</stem>
                <staff>1</staff>
            </note>
            <note>
                <pitch>
                    <step>G</step>
                    <octave>4</octave>
                </pitch>
                <duration>1</duration>
                <voice>1</voice>
                <type>quarter</type>
                <stem>up</stem>
                <staff>1</staff>
            </note>
            <note>
                <pitch>
                    <step>A</step>
                    <octave>4</octave>
                </pitch>
                <duration>1</duration>
                <voice>1</voice>
                <type>quarter</type>
                <stem>up</stem>
                <staff>1</staff>
            </note>
        </measure>
        <measure number="59" width="76">
            <print new-system="no"/>
            <note>
                <pitch>
                    <step>G</step>
                    <octave>4</octave>
                </pitch>
                <duration>2</duration>
                <voice>1</voice>
                <type>half</type>
                <stem>up</stem>
                <staff>1</staff>
            </note>
            <note>
                <rest/>
                <duration>1</duration>
                <voice>1</voice>
                <type>quarter</type>
                <staff>1</staff>
            </note>
        </measure>
        <measure number="60" width="76">
            <print new-system="no"/>
            <note>
                <pitch>
                    <step>A</step>
                    <octave>4</octave>
                </pitch>
                <duration>2</duration>
                <voice>1</voice>
                <type>half</type>
                <stem>up</stem>
                <staff>1</staff>
            </note>
            <note>
                <pitch>
                    <step>F</step>
                    <octave>4</octave>
                </pitch>
                <duration>1</duration>
                <voice>1</voice>
                <type>quarter</type>
                <stem>up</stem>
                <staff>1</staff>
            </note>
        </measure>
        <measure number="61" width="94">
            <print new-system="no"/>
            <note>
                <pitch>
                    <step>C</step>
                    <octave>4</octave>
                </pitch>
                <duration>2</duration>
                <voice>1</voice>
                <type>half</type>
                <stem>up</stem>
                <staff>1</staff>
            </note>
            <note>
                <pitch>
                    <step>D</step>
                    <alter>-1</alter>
                    <octave>4</octave>
                </pitch>
                <duration>1</duration>
                <voice>1</voice>
                <type>quarter</type>
                <accidental>flat</accidental>
                <stem>up</stem>
                <staff>1</staff>
            </note>
        </measure>
        <measure number="62" width="98">
            <print new-system="no"/>
            <note>
                <pitch>
                    <step>D</step>
                    <octave>4</octave>
                </pitch>
                <duration>1</duration>
                <voice>1</voice>
                <type>quarter</type>
                <stem>up</stem>
                <staff>1</staff>
            </note>
            <note>
                <pitch>
                    <step>F</step>
                    <octave>4</octave>
                </pitch>
                <duration>1</duration>
                <voice>1</voice>
                <type>quarter</type>
                <stem>up</stem>
                <staff>1</staff>
            </note>
            <note>
                <pitch>
                    <step>B</step>
                    <alter>-1</alter>
                    <octave>4</octave>
                </pitch>
                <duration>1</duration>
                <voice>1</voice>
                <type>quarter</type>
                <stem>down</stem>
                <staff>1</staff>
            </note>
        </measure>
        <measure number="63" width="62">
            <print new-system="no"/>
            <note>
                <pitch>
                    <step>A</step>
                    <octave>4</octave>
                </pitch>
                <duration>3</duration>
                <voice>1</voice>
                <type>half</type>
                <dot/>
                <stem>up</stem>
                <staff>1</staff>
            </note>
        </measure>
        <measure number="64" width="98">
            <print new-system="no"/>
            <note>
                <pitch>
                    <step>C</step>
                    <octave>5</octave>
                </pitch>
                <duration>1</duration>
                <voice>1</voice>
                <type>quarter</type>
                <stem>down</stem>
                <staff>1</staff>
            </note>
            <note>
                <pitch>
                    <step>A</step>
                    <octave>4</octave>
                </pitch>
                <duration>1</duration>
                <voice>1</voice>
                <type>quarter</type>
                <stem>up</stem>
                <staff>1</staff>
            </note>
            <note>
                <pitch>
                    <step>F</step>
                    <octave>4</octave>
                </pitch>
                <duration>1</duration>
                <voice>1</voice>
                <type>quarter</type>
                <stem>up</stem>
                <staff>1</staff>
            </note>
        </measure>
        <measure number="65" width="100">
            <print new-system="no"/>
            <note>
                <pitch>
                    <step>G</step>
                    <octave>4</octave>
                </pitch>
                <duration>1</duration>
                <voice>1</voice>
                <type>quarter</type>
                <stem>up</stem>
                <staff>1</staff>
            </note>
            <note>
                <pitch>
                    <step>A</step>
                    <octave>4</octave>
                </pitch>
                <duration>1</duration>
                <voice>1</voice>
                <type>quarter</type>
                <stem>up</stem>
                <staff>1</staff>
            </note>
            <note>
                <pitch>
                    <step>B</step>
                    <alter>-1</alter>
                    <octave>4</octave>
                </pitch>
                <duration>1</duration>
                <voice>1</voice>
                <type>quarter</type>
                <stem>down</stem>
                <staff>1</staff>
            </note>
        </measure>
        <measure number="66" width="76">
            <print new-system="no"/>
            <note>
                <pitch>
                    <step>A</step>
                    <octave>4</octave>
                </pitch>
                <duration>2</duration>
                <voice>1</voice>
                <type>half</type>
                <stem>up</stem>
                <staff>1</staff>
            </note>
            <note>
                <pitch>
                    <step>G</step>
                    <octave>4</octave>
                </pitch>
                <duration>1</duration>
                <voice>1</voice>
                <type>quarter</type>
                <stem>up</stem>
                <staff>1</staff>
            </note>
        </measure>
        <measure number="67" width="76">
            <print new-system="no"/>
            <note>
                <pitch>
                    <step>F</step>
                    <octave>4</octave>
                </pitch>
                <duration>2</duration>
                <voice>1</voice>
                <type>half</type>
                <stem>up</stem>
                <staff>1</staff>
            </note>
            <note>
                <rest/>
                <duration>1</duration>
                <voice>1</voice>
                <type>quarter</type>
                <staff>1</staff>
            </note>
        </measure>
        <measure number="68" width="22">
            <print new-system="no"/>
            <note>
                <rest/>
                <duration>3</duration>
                <voice>1</voice>
                <type>whole</type>
                <staff>1</staff>
            </note>
        </measure>
        <measure number="69" width="107">
            <print new-system="yes">
                <system-layout>
                    <system-margins>
                        <left-margin>26</left-margin>
                        <right-margin>0</right-margin>
                    </system-margins>
                    <system-distance>87</system-distance>
                </system-layout>
            </print>
            <note>
                <rest/>
                <duration>3</duration>
                <voice>1</voice>
                <type>whole</type>
                <staff>1</staff>
            </note>
        </measure>
        <measure number="70" width="97">
            <print new-system="no"/>
            <note>
                <pitch>
                    <step>F</step>
                    <octave>4</octave>
                </pitch>
                <duration>1</duration>
                <voice>1</voice>
                <type>quarter</type>
                <stem>up</stem>
                <staff>1</staff>
            </note>
            <note>
                <pitch>
                    <step>E</step>
                    <octave>4</octave>
                </pitch>
                <duration>1</duration>
                <voice>1</voice>
                <type>quarter</type>
                <stem>up</stem>
                <staff>1</staff>
            </note>
            <note>
                <pitch>
                    <step>D</step>
                    <octave>4</octave>
                </pitch>
                <duration>1</duration>
                <voice>1</voice>
                <type>quarter</type>
                <stem>up</stem>
                <staff>1</staff>
            </note>
        </measure>
        <measure number="71" width="74">
            <print new-system="no"/>
            <note>
                <pitch>
                    <step>F</step>
                    <octave>4</octave>
                </pitch>
                <duration>2</duration>
                <voice>1</voice>
                <type>half</type>
                <stem>up</stem>
                <staff>1</staff>
            </note>
            <note>
                <pitch>
                    <step>D</step>
                    <octave>4</octave>
                </pitch>
                <duration>1</duration>
                <voice>1</voice>
                <type>quarter</type>
                <stem>up</stem>
                <staff>1</staff>
            </note>
        </measure>
        <measure number="72" width="74">
            <print new-system="no"/>
            <note>
                <pitch>
                    <step>E</step>
                    <octave>4</octave>
                </pitch>
                <duration>2</duration>
                <voice>1</voice>
                <type>half</type>
                <stem>up</stem>
                <staff>1</staff>
            </note>
            <note>
                <pitch>
                    <step>D</step>
                    <octave>4</octave>
                </pitch>
                <duration>1</duration>
                <voice>1</voice>
                <type>quarter</type>
                <stem>up</stem>
                <staff>1</staff>
            </note>
        </measure>
        <measure number="73" width="88">
            <print new-system="no"/>
            <note>
                <pitch>
                    <step>C</step>
                    <octave>4</octave>
                </pitch>
                <duration>2</duration>
                <voice>1</voice>
                <type>half</type>
                <stem>up</stem>
                <staff>1</staff>
            </note>
            <note>
                <pitch>
                    <step>C</step>
                    <octave>4</octave>
                </pitch>
                <duration>1</duration>
                <voice>1</voice>
                <type>quarter</type>
                <stem>up</stem>
                <staff>1</staff>
            </note>
        </measure>
        <measure number="74" width="74">
            <print new-system="no"/>
            <note>
                <pitch>
                    <step>G</step>
                    <octave>4</octave>
                </pitch>
                <duration>2</duration>
                <voice>1</voice>
                <type>half</type>
                <stem>up</stem>
                <staff>1</staff>
            </note>
            <note>
                <pitch>
                    <step>E</step>
                    <octave>4</octave>
                </pitch>
                <duration>1</duration>
                <voice>1</voice>
                <type>quarter</type>
                <stem>up</stem>
                <staff>1</staff>
            </note>
        </measure>
        <measure number="75" width="82">
            <print new-system="no"/>
            <note>
                <pitch>
                    <step>D</step>
                    <octave>4</octave>
                </pitch>
                <duration>2</duration>
                <voice>1</voice>
                <type>half</type>
                <stem>up</stem>
                <staff>1</staff>
            </note>
            <note>
                <pitch>
                    <step>C</step>
                    <octave>4</octave>
                </pitch>
                <duration>1</duration>
                <voice>1</voice>
                <type>quarter</type>
                <stem>up</stem>
                <staff>1</staff>
            </note>
        </measure>
        <measure number="76" width="59">
            <print new-system="no"/>
            <note>
                <pitch>
                    <step>F</step>
                    <octave>4</octave>
                </pitch>
                <duration>3</duration>
                <voice>1</voice>
                <type>half</type>
                <dot/>
                <stem>up</stem>
                <staff>1</staff>
            </note>
        </measure>
        <measure number="77" width="85">
            <print new-system="no"/>
            <note>
                <rest/>
                <duration>1</duration>
                <voice>1</voice>
                <type>quarter</type>
                <staff>1</staff>
            </note>
            <note>
                <rest/>
                <duration>1</duration>
                <voice>1</voice>
                <type>quarter</type>
                <staff>1</staff>
            </note>
            <note>
                <pitch>
                    <step>A</step>
                    <octave>4</octave>
                </pitch>
                <duration>1</duration>
                <voice>1</voice>
                <type>quarter</type>
                <stem>up</stem>
                <staff>1</staff>
            </note>
        </measure>
        <measure number="78" width="74">
            <print new-system="no"/>
            <note>
                <pitch>
                    <step>G</step>
                    <octave>4</octave>
                </pitch>
                <duration>2</duration>
                <voice>1</voice>
                <type>half</type>
                <stem>up</stem>
                <staff>1</staff>
            </note>
            <note>
                <pitch>
                    <step>A</step>
                    <octave>4</octave>
                </pitch>
                <duration>1</duration>
                <voice>1</voice>
                <type>quarter</type>
                <stem>up</stem>
                <staff>1</staff>
            </note>
        </measure>
        <measure number="79" width="74">
            <print new-system="no"/>
            <note>
                <pitch>
                    <step>G</step>
                    <octave>4</octave>
                </pitch>
                <duration>2</duration>
                <voice>1</voice>
                <type>half</type>
                <stem>up</stem>
                <staff>1</staff>
            </note>
            <note>
                <pitch>
                    <step>F</step>
                    <octave>4</octave>
                </pitch>
                <duration>1</duration>
                <voice>1</voice>
                <type>quarter</type>
                <stem>up</stem>
                <staff>1</staff>
            </note>
        </measure>
        <measure number="80" width="42">
            <print new-system="no"/>
            <note>
                <pitch>
                    <step>E</step>
                    <octave>4</octave>
                </pitch>
                <duration>2</duration>
                <voice>1</voice>
                <type>half</type>
                <stem>up</stem>
                <staff>1</staff>
            </note>
            <note>
                <pitch>
                    <step>F</step>
                    <octave>4</octave>
                </pitch>
                <duration>1</duration>
                <voice>1</voice>
                <type>quarter</type>
                <stem>up</stem>
                <staff>1</staff>
            </note>
        </measure>
        <measure number="81" width="136">
            <print new-system="yes">
                <system-layout>
                    <system-margins>
                        <left-margin>26</left-margin>
                        <right-margin>0</right-margin>
                    </system-margins>
                    <system-distance>87</system-distance>
                </system-layout>
            </print>
            <note>
                <pitch>
                    <step>G</step>
                    <octave>4</octave>
                </pitch>
                <duration>2</duration>
                <voice>1</voice>
                <type>half</type>
                <stem>up</stem>
                <staff>1</staff>
            </note>
            <note>
                <pitch>
                    <step>F</step>
                    <octave>4</octave>
                </pitch>
                <duration>1</duration>
                <voice>1</voice>
                <type>quarter</type>
                <stem>up</stem>
                <staff>1</staff>
            </note>
        </measure>
        <measure number="82" width="80">
            <print new-system="no"/>
            <note>
                <pitch>
                    <step>E</step>
                    <octave>4</octave>
                </pitch>
                <duration>2</duration>
                <voice>1</voice>
                <type>half</type>
                <stem>up</stem>
                <staff>1</staff>
            </note>
            <note>
                <pitch>
                    <step>E</step>
                    <octave>4</octave>
                </pitch>
                <duration>1</duration>
                <voice>1</voice>
                <type>quarter</type>
                <stem>up</stem>
                <staff>1</staff>
            </note>
        </measure>
        <measure number="83" width="80">
            <print new-system="no"/>
            <note>
                <pitch>
                    <step>F</step>
                    <octave>4</octave>
                </pitch>
                <duration>2</duration>
                <voice>1</voice>
                <type>half</type>
                <stem>up</stem>
                <staff>1</staff>
            </note>
            <note>
                <pitch>
                    <step>D</step>
                    <octave>4</octave>
                </pitch>
                <duration>1</duration>
                <voice>1</voice>
                <type>quarter</type>
                <stem>up</stem>
                <staff>1</staff>
            </note>
        </measure>
        <measure number="84" width="67">
            <print new-system="no"/>
            <note>
                <pitch>
                    <step>G</step>
                    <octave>4</octave>
                </pitch>
                <duration>3</duration>
                <voice>1</voice>
                <type>half</type>
                <dot/>
                <stem>up</stem>
                <staff>1</staff>
            </note>
        </measure>
        <measure number="85" width="73">
            <print new-system="no"/>
            <note>
                <pitch>
                    <step>A</step>
                    <alter>-1</alter>
                    <octave>4</octave>
                </pitch>
                <duration>3</duration>
                <voice>1</voice>
                <type>half</type>
                <dot/>
                <accidental>flat</accidental>
                <stem>up</stem>
                <staff>1</staff>
            </note>
        </measure>
        <measure number="86" width="82">
            <print new-system="no"/>
            <note>
                <pitch>
                    <step>A</step>
                    <octave>4</octave>
                </pitch>
                <duration>2</duration>
                <voice>1</voice>
                <type>half</type>
                <stem>up</stem>
                <staff>1</staff>
            </note>
            <note>
                <pitch>
                    <step>F</step>
                    <octave>4</octave>
                </pitch>
                <duration>1</duration>
                <voice>1</voice>
                <type>quarter</type>
                <stem>up</stem>
                <staff>1</staff>
            </note>
        </measure>
        <measure number="87" width="95">
            <print new-system="no"/>
            <note>
                <pitch>
                    <step>C</step>
                    <octave>4</octave>
                </pitch>
                <duration>2</duration>
                <voice>1</voice>
                <type>half</type>
                <stem>up</stem>
                <staff>1</staff>
            </note>
            <note>
                <pitch>
                    <step>D</step>
                    <alter>-1</alter>
                    <octave>4</octave>
                </pitch>
                <duration>1</duration>
                <voice>1</voice>
                <type>quarter</type>
                <accidental>flat</accidental>
                <stem>up</stem>
                <staff>1</staff>
            </note>
        </measure>
        <measure number="88" width="104">
            <print new-system="no"/>
            <note>
                <pitch>
                    <step>D</step>
                    <octave>4</octave>
                </pitch>
                <duration>1</duration>
                <voice>1</voice>
                <type>quarter</type>
                <stem>up</stem>
                <staff>1</staff>
            </note>
            <note>
                <pitch>
                    <step>F</step>
                    <octave>4</octave>
                </pitch>
                <duration>1</duration>
                <voice>1</voice>
                <type>quarter</type>
                <stem>up</stem>
                <staff>1</staff>
            </note>
            <note>
                <pitch>
                    <step>B</step>
                    <alter>-1</alter>
                    <octave>4</octave>
                </pitch>
                <duration>1</duration>
                <voice>1</voice>
                <type>quarter</type>
                <stem>down</stem>
                <staff>1</staff>
            </note>
        </measure>
        <measure number="89" width="79">
            <print new-system="no"/>
            <note>
                <pitch>
                    <step>A</step>
                    <octave>4</octave>
                </pitch>
                <duration>2</duration>
                <voice>1</voice>
                <type>half</type>
                <stem>up</stem>
                <staff>1</staff>
            </note>
            <note>
                <rest/>
                <duration>1</duration>
                <voice>1</voice>
                <type>quarter</type>
                <staff>1</staff>
            </note>
        </measure>
        <measure number="90" width="80">
            <print new-system="no"/>
            <note>
                <pitch>
                    <step>A</step>
                    <octave>4</octave>
                </pitch>
                <duration>2</duration>
                <voice>1</voice>
                <type>half</type>
                <stem>up</stem>
                <staff>1</staff>
            </note>
            <note>
                <pitch>
                    <step>F</step>
                    <octave>4</octave>
                </pitch>
                <duration>1</duration>
                <voice>1</voice>
                <type>quarter</type>
                <stem>up</stem>
                <staff>1</staff>
            </note>
        </measure>
        <measure number="91" width="55">
            <print new-system="no"/>
            <note>
                <pitch>
                    <step>C</step>
                    <octave>4</octave>
                </pitch>
                <duration>2</duration>
                <voice>1</voice>
                <type>half</type>
                <stem>up</stem>
                <staff>1</staff>
            </note>
            <note>
                <pitch>
                    <step>F</step>
                    <octave>4</octave>
                </pitch>
                <duration>1</duration>
                <voice>1</voice>
                <type>quarter</type>
                <stem>up</stem>
                <staff>1</staff>
            </note>
        </measure>
        <measure number="92" width="160">
            <print new-system="yes">
                <system-layout>
                    <system-margins>
                        <left-margin>26</left-margin>
                        <right-margin>0</right-margin>
                    </system-margins>
                    <system-distance>87</system-distance>
                </system-layout>
            </print>
            <note>
                <pitch>
                    <step>F</step>
                    <octave>4</octave>
                </pitch>
                <duration>1</duration>
                <voice>1</voice>
                <type>quarter</type>
                <stem>up</stem>
                <staff>1</staff>
            </note>
            <note>
                <pitch>
                    <step>G</step>
                    <octave>4</octave>
                </pitch>
                <duration>1</duration>
                <voice>1</voice>
                <type>quarter</type>
                <stem>up</stem>
                <staff>1</staff>
            </note>
            <note>
                <pitch>
                    <step>A</step>
                    <octave>4</octave>
                </pitch>
                <duration>1</duration>
                <voice>1</voice>
                <type>quarter</type>
                <stem>up</stem>
                <staff>1</staff>
            </note>
        </measure>
        <measure number="93" width="80">
            <print new-system="no"/>
            <note>
                <pitch>
                    <step>G</step>
                    <octave>4</octave>
                </pitch>
                <duration>2</duration>
                <voice>1</voice>
                <type>half</type>
                <stem>up</stem>
                <staff>1</staff>
            </note>
            <note>
                <rest/>
                <duration>1</duration>
                <voice>1</voice>
                <type>quarter</type>
                <staff>1</staff>
            </note>
        </measure>
        <measure number="94" width="83">
            <print new-system="no"/>
            <note>
                <pitch>
                    <step>A</step>
                    <octave>4</octave>
                </pitch>
                <duration>2</duration>
                <voice>1</voice>
                <type>half</type>
                <stem>up</stem>
                <staff>1</staff>
            </note>
            <note>
                <pitch>
                    <step>F</step>
                    <octave>4</octave>
                </pitch>
                <duration>1</duration>
                <voice>1</voice>
                <type>quarter</type>
                <stem>up</stem>
                <staff>1</staff>
            </note>
        </measure>
        <measure number="95" width="97">
            <print new-system="no"/>
            <note>
                <pitch>
                    <step>C</step>
                    <octave>4</octave>
                </pitch>
                <duration>2</duration>
                <voice>1</voice>
                <type>half</type>
                <stem>up</stem>
                <staff>1</staff>
            </note>
            <note>
                <pitch>
                    <step>D</step>
                    <alter>-1</alter>
                    <octave>4</octave>
                </pitch>
                <duration>1</duration>
                <voice>1</voice>
                <type>quarter</type>
                <accidental>flat</accidental>
                <stem>up</stem>
                <staff>1</staff>
            </note>
        </measure>
        <measure number="96" width="106">
            <print new-system="no"/>
            <note>
                <pitch>
                    <step>D</step>
                    <octave>4</octave>
                </pitch>
                <duration>1</duration>
                <voice>1</voice>
                <type>quarter</type>
                <stem>up</stem>
                <staff>1</staff>
            </note>
            <note>
                <pitch>
                    <step>F</step>
                    <octave>4</octave>
                </pitch>
                <duration>1</duration>
                <voice>1</voice>
                <type>quarter</type>
                <stem>up</stem>
                <staff>1</staff>
            </note>
            <note>
                <pitch>
                    <step>B</step>
                    <alter>-1</alter>
                    <octave>4</octave>
                </pitch>
                <duration>1</duration>
                <voice>1</voice>
                <type>quarter</type>
                <stem>down</stem>
                <staff>1</staff>
            </note>
        </measure>
        <measure number="97" width="67">
            <print new-system="no"/>
            <note>
                <pitch>
                    <step>A</step>
                    <octave>4</octave>
                </pitch>
                <duration>3</duration>
                <voice>1</voice>
                <type>half</type>
                <dot/>
                <stem>up</stem>
                <staff>1</staff>
            </note>
        </measure>
        <measure number="98" width="104">
            <print new-system="no"/>
            <note>
                <pitch>
                    <step>C</step>
                    <octave>5</octave>
                </pitch>
                <duration>1</duration>
                <voice>1</voice>
                <type>quarter</type>
                <stem>down</stem>
                <staff>1</staff>
            </note>
            <note>
                <pitch>
                    <step>A</step>
                    <octave>4</octave>
                </pitch>
                <duration>1</duration>
                <voice>1</voice>
                <type>quarter</type>
                <stem>up</stem>
                <staff>1</staff>
            </note>
            <note>
                <pitch>
                    <step>F</step>
                    <octave>4</octave>
                </pitch>
                <duration>1</duration>
                <voice>1</voice>
                <type>quarter</type>
                <stem>up</stem>
                <staff>1</staff>
            </note>
        </measure>
        <measure number="99" width="104">
            <print new-system="no"/>
            <note>
                <pitch>
                    <step>G</step>
                    <octave>4</octave>
                </pitch>
                <duration>1</duration>
                <voice>1</voice>
                <type>quarter</type>
                <stem>up</stem>
                <staff>1</staff>
            </note>
            <note>
                <pitch>
                    <step>A</step>
                    <octave>4</octave>
                </pitch>
                <duration>1</duration>
                <voice>1</voice>
                <type>quarter</type>
                <stem>up</stem>
                <staff>1</staff>
            </note>
            <note>
                <pitch>
                    <step>B</step>
                    <alter>-1</alter>
                    <octave>4</octave>
                </pitch>
                <duration>1</duration>
                <voice>1</voice>
                <type>quarter</type>
                <stem>down</stem>
                <staff>1</staff>
            </note>
        </measure>
        <measure number="100" width="83">
            <print new-system="no"/>
            <note>
                <pitch>
                    <step>A</step>
                    <octave>4</octave>
                </pitch>
                <duration>2</duration>
                <voice>1</voice>
                <type>half</type>
                <stem>up</stem>
                <staff>1</staff>
            </note>
            <note>
                <pitch>
                    <step>G</step>
                    <octave>4</octave>
                </pitch>
                <duration>1</duration>
                <voice>1</voice>
                <type>quarter</type>
                <stem>up</stem>
                <staff>1</staff>
            </note>
        </measure>
        <measure number="101" width="48">
            <print new-system="no"/>
            <note>
                <pitch>
                    <step>F</step>
                    <octave>4</octave>
                </pitch>
                <duration>2</duration>
                <voice>1</voice>
                <type>half</type>
                <stem>up</stem>
                <staff>1</staff>
            </note>
            <note>
                <rest/>
                <duration>1</duration>
                <voice>1</voice>
                <type>quarter</type>
                <staff>1</staff>
            </note>
        </measure>
    </part>
</score-partwise>